{
	"meshes":[{
		"name":"eyeR",
		"primitives":[{
			"attributes":{
				"POSITION":1,
				"NORMAL":2,
				"TEXCOORD_0":3,
				"JOINTS_0":4,
				"WEIGHTS_0":5
			},
			"indices":0,
			"material":0
		}]
	}],
	"asset":{
		"version":"2.0",
		"generator":"Created using the official Cinema 4D glTF Exporter 1.000x284978"
	},
	"scenes":[{
		"nodes":[0]
	}],
	"samplers":[{
		"magFilter":9729,
		"minFilter":9729,
		"wrapS":10497,
		"wrapT":10497
	}],
	"nodes":[{
		"name":"eyeR",
		"rotation":[-0.7071067690849304,
		0.0,
		0.0,
		-0.7071067690849304],
		"translation":[-0.03376515582203865,
		0.03252450376749039,
		-1.9915514756459466e-18],
		"scale":[0.010866856202483178,
		0.010866856202483178,
		0.010866856202483178],
		"children":[1,
		2]
	},
	{
		"skin":0,
		"name":"eyeR",
		"mesh":0
	},
	{
		"name":"Joint",
		"rotation":[5.4891876973190739e-15,
		0.704339325428009,
		-0.7098634839057922,
		5.447144793465633e-15],
		"translation":[0.005083649419248104,
		-3.069829225540161,
		-0.0628914088010788],
		"scale":[1.0,
		1.0,
		1.0],
		"children":[3]
	},
	{
		"name":"Joint.1",
		"rotation":[0.003906160593032837,
		-1.2246374558134093e-16,
		-4.783667166479649e-19,
		-0.9999923706054688],
		"translation":[-1.1424924108735086e-20,
		4.0772777949033e-16,
		-3.0571184158325197],
		"scale":[1.0,
		1.0,
		1.0],
		"children":[4]
	},
	{
		"name":"Joint.2",
		"rotation":[-0.004504367243498564,
		-1.8367460798445255e-16,
		8.273463071694797e-19,
		-0.9999898672103882],
		"translation":[1.0282013341573256e-19,
		-9.868655137006745e-17,
		-3.057025194168091],
		"scale":[1.0,
		1.0,
		1.0],
		"children":[5]
	},
	{
		"name":"Joint.3",
		"rotation":[-0.01654948852956295,
		-5.664763121845668e-16,
		-9.376177442891662e-18,
		0.9998630285263062],
		"translation":[2.3712665127905178e-19,
		2.7755575615628916e-17,
		-2.6511216163635256],
		"scale":[1.0,
		1.0,
		1.0],
		"children":[6]
	},
	{
		"name":"Joint.4",
		"rotation":[-9.71445146547012e-17,
		-6.207116200390229e-16,
		6.029872833454021e-32,
		-1.0],
		"translation":[-4.993268529845992e-19,
		-7.216449660063518e-16,
		-1.9828652143478394],
		"scale":[1.0,
		1.0,
		1.0]
	}],
	"skins":[{
		"inverseBindMatrices":6,
		"joints":[2,
		3,
		4,
		5,
		6]
	}],
	"accessors":[{
		"componentType":5123,
		"bufferView":0,
		"count":1344,
		"type":"SCALAR",
		"byteOffset":0,
		"min":[0],
		"max":[271]
	},
	{
		"componentType":5126,
		"bufferView":1,
		"count":272,
		"type":"VEC3",
		"byteOffset":0,
		"min":[-1.9307630062103272,
		-7.2310919761657719,
		-1.9307630062103272],
		"max":[1.9307630062103272,
		7.633240222930908,
		1.9307630062103272]
	},
	{
		"componentType":5126,
		"bufferView":1,
		"count":272,
		"type":"VEC3",
		"byteOffset":12,
		"min":[-0.9999264478683472,
		-1.0,
		-0.9999264478683472],
		"max":[0.9999264478683472,
		0.9999999403953552,
		0.9999264478683472]
	},
	{
		"componentType":5126,
		"bufferView":1,
		"count":272,
		"type":"VEC2",
		"byteOffset":24,
		"min":[0.13625171780586244,
		0.013933420181274414],
		"max":[0.988481879234314,
		0.8684636354446411]
	},
	{
		"componentType":5123,
		"bufferView":2,
		"count":272,
		"type":"VEC4",
		"byteOffset":0,
		"min":[0,
		0,
		0,
		0],
		"max":[3,
		3,
		2,
		3]
	},
	{
		"componentType":5126,
		"bufferView":3,
		"count":272,
		"type":"VEC4",
		"byteOffset":0,
		"min":[0.6636148691177368,
		0.0,
		0.0,
		0.0],
		"max":[1.0,
		0.3363698720932007,
		0.0,
		0.0]
	},
	{
		"componentType":5126,
		"bufferView":4,
		"count":5,
		"type":"MAT4",
		"byteOffset":0,
		"min":[-1.0,
		1.4959518338159874e-14,
		-7.605116021867074e-16,
		0.0,
		-2.7223498634921326e-16,
		-0.009008643217384816,
		-1.0,
		0.0,
		-1.497859690826383e-14,
		-1.0,
		-0.02408939227461815,
		0.0,
		0.005083649419248104,
		-0.24782007932662965,
		-3.069244146347046,
		1.0],
		"max":[-1.0,
		1.497848509991479e-14,
		6.327843276966792e-16,
		0.0,
		9.678805142676107e-16,
		0.02408939227461815,
		-0.9997097849845886,
		0.0,
		-1.49405380238778e-14,
		-0.9997097849845886,
		0.009008643217384816,
		0.0,
		0.005083649419248104,
		-0.05934659391641617,
		7.6737823486328129,
		1.0]
	}],
	"bufferViews":[{
		"buffer":0,
		"byteOffset":0,
		"byteLength":2688,
		"target":34963
	},
	{
		"buffer":0,
		"byteOffset":2688,
		"byteLength":8704,
		"target":34962,
		"byteStride":32
	},
	{
		"buffer":0,
		"byteOffset":11392,
		"byteLength":2176,
		"target":34962
	},
	{
		"buffer":0,
		"byteOffset":13568,
		"byteLength":4352,
		"target":34962
	},
	{
		"buffer":1,
		"byteOffset":0,
		"byteLength":320
	}],
	"buffers":[{
		"uri":"data:application/octet-stream;base64,",
		"byteLength":17920
	},
	{
		"uri":"data:application/octet-stream;base64,",
		"byteLength":320
	}],
	"images":[{
		"uri":"data:image/jpeg;base64,"
	}],
	"textures":[{
		"sampler":0,
		"source":0
	}],
	"materials":[{
		"pbrMetallicRoughness":{
			"baseColorTexture":{
				"index":0
			},
			"baseColorFactor":[0.8,
			0.8,
			0.8,
			1.0],
			"metallicFactor":0.0,
			"roughnessFactor":0.5
		},
		"emissiveFactor":[0.0,
		0.0,
		0.0],
		"alphaMode":"OPAQUE",
		"doubleSided":false,
		"name":"Mat"
	}]
}